<?xml version="1.0" encoding="UTF-8" standalone="no"?>
<!-- Created with Inkscape (http://www.inkscape.org/) -->

<svg
   xmlns:dc="http://purl.org/dc/elements/1.1/"
   xmlns:cc="http://creativecommons.org/ns#"
   xmlns:rdf="http://www.w3.org/1999/02/22-rdf-syntax-ns#"
   xmlns:svg="http://www.w3.org/2000/svg"
   xmlns="http://www.w3.org/2000/svg"
   xmlns:sodipodi="http://sodipodi.sourceforge.net/DTD/sodipodi-0.dtd"
   xmlns:inkscape="http://www.inkscape.org/namespaces/inkscape"
   version="1.0"
   width="708.87"
   height="810.54999"
   id="svg2"
   inkscape:version="0.48.4 r9939"
   sodipodi:docname="benzene_sin_text.svg">
  <metadata
     id="metadata20">
    <rdf:RDF>
      <cc:Work
         rdf:about="">
        <dc:format>image/svg+xml</dc:format>
        <dc:type
           rdf:resource="http://purl.org/dc/dcmitype/StillImage" />
        <dc:title></dc:title>
      </cc:Work>
    </rdf:RDF>
  </metadata>
  <sodipodi:namedview
     pagecolor="#ffffff"
     bordercolor="#666666"
     borderopacity="1"
     objecttolerance="10"
     gridtolerance="10"
     guidetolerance="10"
     inkscape:pageopacity="0"
     inkscape:pageshadow="2"
     inkscape:window-width="1920"
     inkscape:window-height="1025"
     id="namedview18"
     showgrid="false"
     inkscape:snap-center="true"
     inkscape:zoom="1.0499044"
     inkscape:cx="354.435"
     inkscape:cy="457.94359"
     inkscape:window-x="0"
     inkscape:window-y="30"
     inkscape:window-maximized="1"
     inkscape:current-layer="layer1" />
  <defs
     id="defs4" />
  <g
     transform="translate(-59.852013,-82.965271)"
     id="layer1">
    <path
       d="m 613.2328,576.87603 0,-212.36124 M 412.88761,258.33416 613.2328,364.51479 M 412.88761,258.33416 421.26506,454.85853 M 412.88761,683.05666 613.2328,576.87603 m 0,0 -191.96774,-122.0175 M 212.54239,364.51479 412.88761,258.33416 M 212.54239,576.87603 412.88761,683.05666 m -200.34522,-106.18063 0,-212.36124 m 0,212.36124 208.72267,-122.0175 M 758.71168,287.36196 613.2328,364.51479 M 758.71168,654.02886 613.2328,576.87603 m -200.34519,-476.66696 0,158.12509 m 0,582.8476 0,-158.1251 M 67.479165,287.36196 212.54239,364.51479 M 67.479165,654.02886 212.54239,576.87603"
       style="fill:none;stroke:#000000;stroke-width:7.96901798px;stroke-linejoin:miter;stroke-opacity:1"
       id="path2295"
       inkscape:connector-curvature="0"
       sodipodi:nodetypes="cccccccccccccccccccccccccccccc" />
  </g>
</svg>
