<?xml version="1.0" encoding="UTF-8" standalone="no"?>
<!-- Created with Inkscape (http://www.inkscape.org/) -->

<svg
   xmlns:dc="http://purl.org/dc/elements/1.1/"
   xmlns:cc="http://creativecommons.org/ns#"
   xmlns:rdf="http://www.w3.org/1999/02/22-rdf-syntax-ns#"
   xmlns:svg="http://www.w3.org/2000/svg"
   xmlns="http://www.w3.org/2000/svg"
   version="1.1"
   width="210mm"
   height="297mm"
   id="svg2">
  <defs
     id="defs4" />
  <metadata
     id="metadata7">
    <rdf:RDF>
      <cc:Work
         rdf:about="">
        <dc:format>image/svg+xml</dc:format>
        <dc:type
           rdf:resource="http://purl.org/dc/dcmitype/StillImage" />
        <dc:title></dc:title>
      </cc:Work>
    </rdf:RDF>
  </metadata>
  <g
     id="layer1">
    <g
       id="text2985"
       style="font-size:144px;font-style:normal;font-variant:normal;font-weight:600;font-stretch:normal;line-height:125%;letter-spacing:0px;word-spacing:0px;fill:#000000;fill-opacity:1;stroke:none;font-family:FreeSans;-inkscape-font-specification:FreeSans Semi-Bold">
      <path
         d="m 185.27771,305.79074 c -7e-5,-2.87998 0.0479,-5.13598 0.144,-6.768 0.0959,-1.63197 0.14393,-3.07197 0.144,-4.32 -7e-5,-4.41597 -1.05607,-7.58396 -3.168,-9.504 -2.11206,-2.01596 -5.52006,-3.02396 -10.224,-3.024 l -24.768,0 0,41.616 -21.6,0 0,-104.976 56.304,0 c 5.37593,1.1e-4 9.98393,0.91211 13.824,2.736 3.93592,1.8241 6.86391,4.2241 8.784,7.2 2.01591,2.97609 3.45591,6.00009 4.32,9.072 0.86391,2.97608 1.29591,6.09608 1.296,9.36 -9e-5,12.67206 -5.90409,21.31206 -17.712,25.92 2.59192,1.05605 4.51192,1.92005 5.76,2.592 1.24792,0.57605 2.49592,1.58405 3.744,3.024 1.34391,1.44004 2.20791,2.73604 2.592,3.888 0.47991,1.15204 0.91191,3.26404 1.296,6.336 0.47991,3.07203 0.76791,6.09603 0.864,9.072 0.0959,2.97602 0.19191,7.39202 0.288,13.248 -9e-5,4.03201 1.53591,6.91201 4.608,8.64 l 0,3.888 -23.184,0 c -1.34407,-2.496 -2.25607,-4.89599 -2.736,-7.2 -0.38407,-2.30399 -0.57607,-5.90399 -0.576,-10.8 m 3.456,-55.584 c -7e-5,-5.37592 -1.24807,-8.92792 -3.744,-10.656 -2.49607,-1.82391 -6.33606,-2.73591 -11.52,-2.736 l -26.064,0 0,27.36 26.064,0 c 5.08794,6e-5 8.87994,-0.91194 11.376,-2.736 2.59193,-1.82393 3.88793,-5.56793 3.888,-11.232"
         id="path3009" />
      <path
         d="m 262.41221,244.73474 c 12.19195,8e-5 21.64794,3.69608 28.368,11.088 6.81592,7.29606 10.22392,17.52005 10.224,30.672 -8e-5,12.48003 -3.45608,22.36802 -10.368,29.664 -6.91206,7.296 -16.27205,10.944 -28.08,10.944 -12.00003,0 -21.40802,-3.648 -28.224,-10.944 -6.81601,-7.39198 -10.224,-17.47197 -10.224,-30.24 0,-12.76795 3.40799,-22.79994 10.224,-30.096 6.81598,-7.39192 16.17597,-11.08792 28.08,-11.088 m 0.144,16.272 c -5.47204,6e-5 -9.88803,2.30406 -13.248,6.912 -3.36002,4.60805 -5.04002,10.60805 -5.04,18 -2e-5,7.39203 1.67998,13.39203 5.04,18 3.35997,4.60802 7.77596,6.91201 13.248,6.912 5.37595,1e-5 9.74395,-2.25598 13.104,-6.768 3.45594,-4.60797 5.18394,-10.55997 5.184,-17.856 -6e-5,-7.67995 -1.68006,-13.77595 -5.04,-18.288 -3.26405,-4.60794 -7.68005,-6.91194 -13.248,-6.912"
         id="path3011" />
      <path
         d="m 330.70871,301.18274 c 0.67198,3.26402 2.01598,5.76002 4.032,7.488 2.11197,1.72801 6.04797,2.59201 11.808,2.592 4.70396,10e-6 8.35195,-0.67199 10.944,-2.016 2.68795,-1.34398 4.03195,-3.21598 4.032,-5.616 -5e-5,-1.53598 -0.52805,-2.78398 -1.584,-3.744 -0.96005,-0.95997 -2.68805,-1.82397 -5.184,-2.592 l -24.048,-7.488 c -0.096,3e-5 -0.67202,-0.14396 -1.728,-0.432 -1.05602,-0.38396 -1.82402,-0.67196 -2.304,-0.864 -0.38402,-0.19196 -1.15202,-0.47996 -2.304,-0.864 -1.15201,-0.47996 -2.06401,-0.95996 -2.736,-1.44 -0.57601,-0.47996 -1.34401,-1.05596 -2.304,-1.728 -0.96001,-0.76796 -1.72801,-1.58396 -2.304,-2.448 -0.48001,-0.86396 -1.00801,-1.82396 -1.584,-2.88 -0.57601,-1.15195 -1.008,-2.44795 -1.296,-3.888 -0.288,-1.43995 -0.432,-2.97595 -0.432,-4.608 0,-7.96794 2.83199,-14.25593 8.496,-18.864 5.75998,-4.70392 13.58397,-7.05592 23.472,-7.056 10.46395,8e-5 18.67195,2.35208 24.624,7.056 5.95193,4.60807 9.02393,11.04006 9.216,19.296 l -19.44,0 c -0.096,-7.00794 -4.94405,-10.51194 -14.544,-10.512 -3.55203,6e-5 -6.38403,0.67206 -8.496,2.016 -2.11203,1.24806 -3.16802,2.97606 -3.168,5.184 -2e-5,1.53606 0.47998,2.73605 1.44,3.6 0.95997,0.76805 2.83197,1.58405 5.616,2.448 l 25.488,7.344 c 10.17593,2.97604 15.26393,9.50403 15.264,19.584 -7e-5,2.97602 -0.52807,5.90402 -1.584,8.784 -1.05607,2.78401 -2.78407,5.56801 -5.184,8.352 -2.30406,2.784 -5.80806,4.992 -10.512,6.624 -4.70405,1.728 -10.27204,2.592 -16.704,2.592 -23.90401,0 -36.144,-8.63999 -36.72,-25.92 l 19.728,0"
         id="path3013" />
      <path
         d="m 416.19296,327.10274 c -7.10402,0 -12.81601,-2.112 -17.136,-6.336 -4.32,-4.31999 -6.48,-9.98399 -6.48,-16.992 0,-13.72797 7.63199,-21.88796 22.896,-24.48 l 8.064,-1.44 c 0.19197,5e-5 1.15197,-0.096 2.88,-0.288 1.72796,-0.28795 2.83196,-0.47995 3.312,-0.576 0.47996,-0.19195 1.39196,-0.43195 2.736,-0.72 1.43996,-0.28795 2.44796,-0.62395 3.024,-1.008 0.57595,-0.38395 1.24795,-0.86395 2.016,-1.44 0.86395,-0.67195 1.43995,-1.39195 1.728,-2.16 0.28795,-0.86395 0.43195,-1.82395 0.432,-2.88 -5e-5,-5.18394 -3.88805,-7.77594 -11.664,-7.776 -4.99203,6e-5 -8.49603,0.76806 -10.512,2.304 -2.01603,1.53606 -3.26402,4.32006 -3.744,8.352 l -19.44,0 c 1.24799,-17.95193 12.33598,-26.92792 33.264,-26.928 21.21594,8e-5 31.82393,7.96807 31.824,23.904 l 0,43.2 c -7e-5,3.55201 1.53593,6.72001 4.608,9.504 l 0,2.448 -21.888,0 c -1.53605,-1.92 -2.30405,-4.51199 -2.304,-7.776 -7.10404,7.392 -14.97603,11.088 -23.616,11.088 m 23.472,-34.56 0,-5.472 c -1.82405,0.86404 -4.65604,1.68004 -8.496,2.448 l -6.912,1.296 c -4.22403,0.86403 -7.20003,2.11203 -8.928,3.744 -1.72802,1.63203 -2.59202,3.93603 -2.592,6.912 -2e-5,2.88002 0.95998,5.18402 2.88,6.912 2.01597,1.63201 4.70397,2.44801 8.064,2.448 5.08796,1e-5 9.02396,-1.58398 11.808,-4.752 2.78395,-3.16798 4.17595,-7.67997 4.176,-13.536"
         id="path3015" />
    </g>
  </g>
</svg>
